<svg width="120" height="23" viewBox="0 0 120 23" fill="none" xmlns="http://www.w3.org/2000/svg">
<g clip-path="url(#clip0)">
<path d="M120 0.239203C119.64 0.260734 119.355 0.405295 119.123 0.676989C118.108 1.86732 117.078 3.04739 116.06 4.23669C114.627 5.91242 113.197 7.59077 111.771 9.27174C111.715 9.3377 111.663 9.40639 111.604 9.4809C111.631 9.52684 111.66 9.57145 111.692 9.61452C112.979 11.1823 114.267 12.7494 115.556 14.316C115.852 14.6755 116.178 15.0016 116.7 15.0518V15.2524H112.102L112.088 15.0727C112.179 15.0385 112.258 15.0101 112.332 14.9756C112.579 14.8601 112.673 14.6465 112.533 14.424C112.357 14.1535 112.164 13.8927 111.957 13.6428C111.38 12.9275 110.799 12.2173 110.219 11.5054C110.172 11.4477 110.121 11.393 110.056 11.3188C109.993 11.3821 109.937 11.4303 109.891 11.4849C109.305 12.1707 108.72 12.8571 108.136 13.544C105.921 16.1356 103.706 18.7276 101.491 21.3199C101.371 21.4615 101.265 21.614 101.176 21.7751C101.018 22.0612 101.14 22.3192 101.464 22.4204C101.531 22.4412 101.599 22.4593 101.668 22.4791V22.6657H97.2125L97.1963 22.5154C97.2179 22.4925 97.2248 22.4781 97.2323 22.4768C97.7898 22.3865 98.0842 21.9764 98.4039 21.6025C100.96 18.6131 103.514 15.6223 106.067 12.6302C106.891 11.6653 107.71 10.6977 108.526 9.7273C108.562 9.68356 108.596 9.63708 108.641 9.57898C108.481 9.37974 108.326 9.18528 108.169 8.99287C107.059 7.63383 105.948 6.27468 104.838 4.91541C104.569 4.5846 104.267 4.31222 103.777 4.32076L103.767 4.09862H108.441L108.456 4.29547C108.362 4.34229 108.276 4.3792 108.193 4.42671C107.962 4.56341 107.881 4.7876 108.003 5.01589C108.098 5.19311 108.211 5.36162 108.339 5.51929C108.908 6.22433 109.485 6.9239 110.06 7.62483C110.093 7.66448 110.132 7.70036 110.183 7.75538C110.228 7.70891 110.269 7.672 110.305 7.63064C111.852 5.81502 113.398 3.99883 114.944 2.18207C115.252 1.81879 115.548 1.44593 115.845 1.07445C115.894 1.00973 115.933 0.938747 115.962 0.863586C116.043 0.661952 115.975 0.472621 115.775 0.366677C115.667 0.309263 115.545 0.274404 115.415 0.224166V0.0303918C115.491 0.0256073 115.566 0.0163799 115.641 0.0163799C117.016 0.0163799 118.391 0.0163799 119.766 0.0163799C119.843 0.0163799 119.921 0.00646907 119.998 0.00134277L120 0.239203Z" fill="#DEB246"/>
<path d="M20.0803 4.33517V4.07373H24.0929V4.31535C24.0893 4.31911 24.0832 4.33141 24.0738 4.33449C23.6367 4.46777 23.6497 4.82183 23.9409 5.11027C24.4557 5.62062 24.9716 6.12983 25.4886 6.63791C27.1035 8.2307 28.7183 9.82362 30.3329 11.4166C30.3737 11.457 30.4079 11.5028 30.4454 11.5462L30.4987 11.5281V11.3356C30.4987 9.26838 30.4929 7.20043 30.5037 5.13385C30.5059 4.73331 30.441 4.41138 29.9517 4.3444V4.07646H33.4209V4.31569C33.4113 4.32567 33.4001 4.3341 33.3877 4.34064C32.9275 4.5245 32.8742 4.59969 32.8742 5.06721C32.8742 8.1202 32.8726 11.1732 32.8695 14.2262C32.8695 14.625 32.9351 14.947 33.4219 15.028V15.2973H29.7102V15.0423C29.7528 15.0252 29.8028 15.0081 29.8508 14.9849C30.0533 14.8895 30.1174 14.7115 29.9967 14.5314C29.9124 14.4062 29.8149 14.2894 29.7059 14.1828C27.5149 12.0332 25.3224 9.88479 23.1282 7.73767C23.0969 7.70691 23.0605 7.6806 22.9985 7.62831C22.9985 7.72058 22.9985 7.78073 22.9985 7.84054C22.9985 9.96488 23.0039 12.0892 22.9938 14.2132C22.992 14.6178 23.0558 14.947 23.5513 15.028V15.2911H20.085V15.0382C20.1189 15.0252 20.1571 15.0098 20.196 14.9955C20.5236 14.8752 20.6205 14.7501 20.6209 14.4196C20.6209 11.2589 20.6222 8.0981 20.6248 4.93734C20.6252 4.57679 20.4101 4.41993 20.0803 4.33517Z" fill="white"/>
<path d="M42.0127 15.5156C40.8956 15.5013 39.803 15.3704 38.781 14.9281C36.6768 14.0174 35.4934 12.4484 35.2444 10.2769C35.0451 8.53804 35.581 6.99912 36.8354 5.7073C37.7168 4.7996 38.8386 4.29381 40.0992 4.05663C41.7114 3.75315 43.3226 3.75384 44.8732 4.30782C47.2004 5.1393 48.5586 6.74178 48.7932 9.10808C49.0192 11.3866 48.1107 13.2047 46.1186 14.5047C45.225 15.0877 44.1954 15.3413 43.1277 15.4469C42.7565 15.4814 42.3839 15.492 42.0127 15.5156ZM42.061 13.5888C42.1821 13.583 42.3446 13.5806 42.5057 13.5666C43.7471 13.4576 44.7558 12.9514 45.4668 11.9672C46.1039 11.0865 46.2938 10.1029 46.1424 9.05306C46.0386 8.33196 45.7626 7.68297 45.2614 7.12352C43.9817 5.69499 41.7576 5.48311 40.243 6.10681C37.51 7.23288 37.4163 10.2027 38.4084 11.744C39.2289 13.016 40.474 13.5745 42.061 13.5871V13.5888Z" fill="white"/>
<path d="M80.0139 5.92016V8.58002H80.2164C81.6755 8.58002 83.1353 8.57148 84.5937 8.58549C85.0125 8.58959 85.3389 8.52056 85.4226 8.06842H85.708V10.8957H85.4247C85.3411 10.4043 84.9689 10.3674 84.5353 10.3712C83.1123 10.3835 81.6885 10.3759 80.2661 10.3759H80.0189V13.4445H80.2651C82.637 13.4445 85.0089 13.4398 87.3808 13.449C87.8042 13.449 88.1606 13.4052 88.2341 12.9264H88.5177V15.8194H88.2597C88.2515 15.8126 88.2446 15.8047 88.2391 15.7958C88.0424 15.3457 87.9811 15.3071 87.46 15.3071H76.8751V15.0279C77.3642 14.9496 77.4157 14.6178 77.4157 14.2145C77.4058 11.1793 77.4058 8.14406 77.4157 5.10883C77.4157 4.71513 77.3379 4.41439 76.8694 4.34672V4.06683H77.0953C80.452 4.06683 83.8086 4.06831 87.1653 4.07127C87.589 4.07127 87.9444 4.02616 88.0254 3.54907H88.308V6.44065H88.0557C88.0518 6.43723 88.0381 6.43108 88.0355 6.42185C87.9206 6.01175 87.6226 5.91332 87.2038 5.91571C84.886 5.92836 82.5681 5.92187 80.2488 5.92187L80.0139 5.92016Z" fill="white"/>
<path d="M7.8609 4.32048V4.07646H12.6822V4.3403C12.3074 4.37447 12.0494 4.6137 11.7751 4.82251C10.1624 6.05556 8.55051 7.28974 6.93946 8.52507C6.90342 8.55309 6.86919 8.58453 6.8227 8.62452C7.1182 8.96183 7.40829 9.29333 7.6991 9.62483L11.591 14.0645C11.6411 14.1216 11.6926 14.177 11.7445 14.2323C12.089 14.6011 12.4267 14.9791 12.996 15.0273V15.2959H8.37694V15.0474C8.46631 15.0133 8.5636 14.9859 8.65297 14.9429C8.8364 14.8543 8.87243 14.7474 8.76324 14.5837C8.66074 14.4294 8.54871 14.2811 8.42775 14.1394C7.29141 12.8136 6.15351 11.4892 5.01405 10.1662C4.98811 10.1361 4.95856 10.1084 4.92036 10.0691L3.14234 11.4296C3.14234 11.6487 3.14234 11.8698 3.14234 12.0913C3.14234 12.8089 3.14234 13.5266 3.14234 14.2443C3.14234 14.7747 3.17838 14.8294 3.69189 15.0481V15.2976H0.0144144V15.0461C0.0204817 15.0393 0.0278101 15.0336 0.036036 15.0293C0.500901 14.8489 0.54955 14.7805 0.54955 14.3058C0.54955 11.23 0.54955 8.15427 0.54955 5.07849C0.54955 4.58055 0.507027 4.52109 0.00900901 4.32663C0.00612613 4.28698 0.000720721 4.2429 0 4.19847C0 4.15985 0.00396396 4.12123 0.00684685 4.07373H3.69297V4.31296C3.68432 4.3215 3.67748 4.33278 3.66775 4.33654C3.20324 4.51015 3.1427 4.59422 3.1427 5.07165C3.1427 6.2564 3.1427 7.44114 3.1427 8.62589C3.1427 8.68672 3.1427 8.74755 3.1427 8.84666C3.22703 8.78377 3.2818 8.74413 3.33514 8.70244C4.88348 7.50311 6.43207 6.30322 7.9809 5.10275C8.089 5.02179 8.18769 4.93014 8.27532 4.82935C8.40901 4.66906 8.37441 4.53305 8.1827 4.43872C8.07787 4.3936 7.97043 4.35412 7.8609 4.32048Z" fill="white"/>
<path d="M50.7047 15.2945C50.6972 15.2649 50.6917 15.2349 50.6881 15.2047C50.6856 15.1541 50.6881 15.1021 50.6881 15.068C50.7105 15.0451 50.7173 15.0338 50.7271 15.0297C51.1314 14.9272 51.2503 14.6698 51.2489 14.2874C51.2385 11.2239 51.2385 8.16044 51.2489 5.09696C51.2489 4.70668 51.1523 4.42098 50.6997 4.34271V4.07375C50.7598 4.07068 50.8128 4.06555 50.8658 4.06555C53.3816 4.06555 55.8974 4.06646 58.4132 4.06829C59.0683 4.06829 59.7224 4.11066 60.3566 4.28291C61.8744 4.6954 62.771 5.87001 62.7505 7.43319C62.7361 8.59071 62.2773 9.53668 61.2233 10.1734C60.722 10.4762 60.153 10.6067 59.5699 10.659C59.033 10.7068 58.4921 10.7328 57.953 10.7373C56.6622 10.7482 55.371 10.7407 54.0802 10.7407H53.8377V10.9505C53.8377 12.0441 53.8481 13.1377 53.8323 14.2314C53.8265 14.6329 53.8964 14.9518 54.3797 15.029V15.2952L50.7047 15.2945ZM53.8442 8.87847C53.8971 8.88154 53.9321 8.88564 53.9674 8.88564C55.3368 8.88564 56.7061 8.89282 58.0755 8.87778C58.4265 8.87402 58.7793 8.81353 59.126 8.7527C59.5137 8.68435 59.7725 8.44717 59.9418 8.11567C60.0737 7.85197 60.1303 7.56009 60.1061 7.26915C60.0625 6.59521 59.6485 6.12735 58.953 6.01765C58.5683 5.95801 58.1792 5.9267 57.7894 5.92401C56.5404 5.91273 55.2914 5.91991 54.0416 5.91991H53.8431L53.8442 8.87847Z" fill="white"/>
<path d="M102.365 4.1011L102.354 4.3188C101.924 4.32153 101.669 4.57306 101.428 4.85261C100.44 6.00592 99.4509 7.15831 98.4604 8.30979C98.1762 8.64106 97.8932 8.97313 97.6114 9.306C97.5631 9.36273 97.5191 9.42288 97.4636 9.49431C97.6935 9.7742 97.9151 10.0476 98.1393 10.321C99.2204 11.6374 100.301 12.9534 101.383 14.2689C101.692 14.6449 102.02 15.0047 102.569 15.0516V15.2542H97.9732L97.9544 15.0779C98.0333 15.0454 98.1043 15.0181 98.1739 14.9877C98.4485 14.8677 98.5425 14.6493 98.393 14.4029C98.2538 14.1838 98.0997 13.9735 97.9317 13.7734C97.3071 13.0004 96.6799 12.2295 96.0503 11.4608C96.0142 11.417 95.9724 11.3777 95.918 11.3203C95.8596 11.3791 95.8099 11.4228 95.7649 11.4751C95.0667 12.2953 94.37 13.1155 93.6748 13.9357C93.5773 14.0513 93.4889 14.1735 93.4103 14.3014C93.1991 14.6432 93.3249 14.9313 93.7249 15.0355C93.7706 15.0475 93.8175 15.0563 93.8784 15.0697V15.2559H89.4027L89.3872 15.0604C89.993 15.0191 90.2769 14.582 90.5984 14.2061C91.8803 12.7069 93.1565 11.2032 94.4269 9.69492C94.4528 9.66416 94.4737 9.62998 94.509 9.58043C94.4286 9.4779 94.3487 9.37538 94.2654 9.27285C93.1235 7.87189 91.9814 6.4707 90.8391 5.06929C90.767 4.9794 90.6845 4.89499 90.6117 4.80443C90.3742 4.50847 90.0686 4.32871 89.6557 4.31538V4.09631H94.3184L94.3299 4.2959C94.2513 4.33246 94.1757 4.36425 94.104 4.40218C93.838 4.54367 93.749 4.77811 93.8809 5.03921C93.9551 5.18216 94.0446 5.31752 94.1479 5.44316C94.7442 6.17907 95.3436 6.91259 95.9461 7.64371C95.9746 7.67789 96.0096 7.70865 96.0575 7.75683C96.1119 7.69874 96.1602 7.65157 96.2038 7.60031C96.7987 6.89972 97.3948 6.19912 97.9858 5.49579C98.1061 5.35369 98.2137 5.20234 98.3076 5.04331C98.4899 4.73061 98.3908 4.49651 98.0377 4.36801C97.971 4.34408 97.9025 4.32529 97.8254 4.29966V4.1011H102.365Z" fill="#DEB246"/>
<path d="M64.2927 15.3071V15.043C64.3349 15.0269 64.3731 15.0115 64.412 14.9972C64.7381 14.8772 64.8351 14.7504 64.8351 14.4203C64.8351 11.2657 64.8365 8.11118 64.8394 4.9568C64.8394 4.5901 64.6369 4.4199 64.2956 4.33617V4.07507H67.9796V4.3143C67.968 4.32387 67.9605 4.33446 67.9504 4.33822C67.4963 4.50261 67.4311 4.59249 67.4311 5.0583C67.4311 7.76954 67.4311 10.4799 67.4311 13.1893V13.4285C67.5226 13.434 67.603 13.4429 67.6834 13.4429C69.9536 13.4429 72.2239 13.4388 74.492 13.4477C74.9111 13.4477 75.2567 13.395 75.3288 12.9261H75.612V15.8174H75.3598C75.3533 15.8122 75.3396 15.8071 75.3356 15.7979C75.1353 15.3447 75.0772 15.3071 74.5587 15.3071H64.2927Z" fill="white"/>
<path d="M17.9435 15.031V15.2951H14.253L14.2422 15.0644C14.2571 15.0502 14.2736 15.0375 14.2916 15.0269C14.7553 14.8396 14.8054 14.7675 14.8054 14.2829C14.8054 11.23 14.8015 8.17709 14.8101 5.12387C14.8101 4.72641 14.7294 4.41849 14.2537 4.34159V4.07947H17.942V4.32656C17.9168 4.33612 17.8908 4.3474 17.8638 4.35663C17.4844 4.48752 17.3993 4.60098 17.3993 4.9899C17.3993 7.04042 17.3993 9.09094 17.3993 11.1415C17.3993 12.1667 17.4105 13.192 17.3939 14.2172C17.3867 14.6226 17.4483 14.9517 17.9435 15.031Z" fill="white"/>
</g>
<defs>
<clipPath id="clip0">
<rect width="120" height="23" fill="white"/>
</clipPath>
</defs>
</svg>
